# xmcd
#
# Track frame offsets: 
#        150
#        14167
#        25925
#        39450
#        60102
#        71337
#        83105
#        106395
#        117840
#        125062
#        137477
#        153780
#        169472
#
# Disc length: 2413 seconds
#
# Revision: 0
# Processed by: cddbd v1.5.2PL0 Copyright (c) Steve Scherf et al.
# Submitted via: ExactAudioCopy v0.99pb5
#
DISCID=a6096b0d
DTITLE=Simon and Garfunkel - Sound Of Silence
DYEAR=1998
DGENRE=Pop
TTITLE0=Sound Of Silence
TTITLE1=El Condor Pasa (If I Could)
TTITLE2=Scarborough Fair
TTITLE3=Bridge Over Trouble Water
TTITLE4=Ceclia
TTITLE5=Homeward Bound
TTITLE6=The Boxer
TTITLE7=Keep The Customer Satisfied
TTITLE8=59th Street Bridge Song (Feelin' Groovy)
TTITLE9=I Am A Rock
TTITLE10=Mrs. Robinson
TTITLE11=America
TTITLE12=Somewhere They Can't Find Me
EXTD=
EXTT0=
EXTT1=
EXTT2=
EXTT3=
EXTT4=
EXTT5=
EXTT6=
EXTT7=
EXTT8=
EXTT9=
EXTT10=
EXTT11=
EXTT12=
PLAYORDER=
